<?xml version="1.0" standalone="no"?><!DOCTYPE svg PUBLIC "-//W3C//DTD SVG 1.1//EN" "http://www.w3.org/Graphics/SVG/1.1/DTD/svg11.dtd"><svg t="1783060291985" class="icon" viewBox="0 0 1024 1024" version="1.1" xmlns="http://www.w3.org/2000/svg" p-id="5825" xmlns:xlink="http://www.w3.org/1999/xlink" width="256" height="256"><path d="M512 881.777778c270.222222 0 398.222222-157.468444 398.222222-369.251556C910.222222 300.743111 731.932444 184.888889 512 184.888889S113.777778 300.743111 113.777778 512.526222C113.777778 724.309333 241.777778 881.777778 512 881.777778z" fill="#E03C1D" p-id="5826"></path><path d="M453.077333 768C695.722667 768 810.666667 626.602667 810.666667 436.423111 810.666667 246.257778 652.600889 213.333333 455.111111 213.333333S142.222222 300.487111 142.222222 490.666667 210.432 768 453.077333 768z" fill="#EB5C20" p-id="5827"></path><path d="M512 184.888889c219.932444 0 398.222222 115.854222 398.222222 327.637333C910.222222 724.309333 782.222222 881.777778 512 881.777778S113.777778 724.309333 113.777778 512.526222C113.777778 300.743111 292.067556 184.888889 512 184.888889z m0 56.888889c-205.127111 0-341.333333 104.775111-341.333333 270.748444C170.666667 707.584 287.857778 824.888889 512 824.888889s341.333333-117.304889 341.333333-312.362667C853.333333 346.552889 717.127111 241.777778 512 241.777778z" fill="#191919" p-id="5828"></path><path d="M317.482667 490.325333a14.222222 14.222222 0 0 0-21.134223 19.043556c30.492444 33.834667 75.022222 45.624889 145.322667 41.713778a14.222222 14.222222 0 0 0-1.564444-28.387556c-62.577778 3.470222-99.029333-6.186667-122.624-32.369778z m-44.088889-60.686222a14.222222 14.222222 0 0 0-13.198222 15.175111c0.426667 5.916444 1.521778 11.719111 3.285333 17.351111a14.222222 14.222222 0 0 0 27.136-8.533333 46.833778 46.833778 0 0 1-2.048-10.808889 14.222222 14.222222 0 0 0-15.175111-13.184z" fill="#FFFFFF" p-id="5829"></path><path d="M512 412.444444c-25.073778 0-50.161778 8.789333-75.235556 26.368 18.545778-20.679111 23.324444-39.296 14.364445-55.850666-8.96-16.554667-31.331556-30.435556-67.128889-41.628445 37.404444 8.675556 65.848889 8.675556 85.333333 0 23.182222-10.296889 37.404444-29.255111 42.666667-56.888889 5.404444 24.348444 17.934222 41.287111 37.617778 50.816 19.683556 9.528889 47.715556 12.245333 84.124444 8.149334-32.711111 10.183111-52.992 23.367111-60.871111 39.552-7.893333 16.184889-3.100444 34.801778 14.364445 55.850666C562.161778 421.233778 537.073778 412.444444 512 412.444444z" fill="#4D9D46" p-id="5830"></path><path d="M498.033778 281.784889c-4.423111 23.182222-15.701333 38.200889-34.474667 46.549333-16.142222 7.182222-41.671111 7.182222-76.344889-0.853333-17.792-4.124444-24.888889 21.973333-7.452444 27.420444 32.568889 10.197333 52.067556 22.286222 58.865778 34.844445 5.674667 10.481778 2.474667 22.940444-12.458667 39.566222-11.292444 12.600889 4.906667 30.862222 18.759111 21.148444C467.726222 434.474667 490.012444 426.666667 512 426.666667c21.987556 0 44.273778 7.822222 67.072 23.793777 13.582222 9.528889 29.696-7.964444 19.114667-20.721777-14.250667-17.180444-17.592889-30.165333-12.529778-40.533334 5.788444-11.904 22.997333-23.082667 52.309333-32.213333 16.469333-5.134222 11.306667-29.653333-5.831111-27.719111-33.948444 3.84-59.448889 1.365333-76.316444-6.812445-15.616-7.566222-25.443556-20.849778-29.937778-41.102222-3.342222-15.075556-24.96-14.762667-27.847111 0.426667z m14.705778 40.263111l1.479111 2.090667a78.648889 78.648889 0 0 0 29.198222 23.921777l3.626667 1.649778a112.071111 112.071111 0 0 0 24.533333 7.196445l3.484444 0.554666-2.161777 2.005334a61.141333 61.141333 0 0 0-12.814223 17.265777l-1.208889 2.645334a49.464889 49.464889 0 0 0-3.669333 24.718222l0.241778 1.934222-3.896889-1.351111A126.492444 126.492444 0 0 0 512 398.222222l-4.977778 0.099556a127.459556 127.459556 0 0 0-34.56 6.357333l-3.057778 1.038222 0.270223-2.588444a48.64 48.64 0 0 0-6.030223-26.936889l-1.536-2.659556a65.365333 65.365333 0 0 0-10.055111-12.458666l-0.298666-0.270222 2.759111-0.426667a86.058667 86.058667 0 0 0 20.593778-6.044445c15.587556-6.926222 27.847111-17.251556 36.664888-30.72l0.967112-1.564444z" fill="#191919" p-id="5831"></path></svg>